#!OML:ASF E:\id_vita\Project 1\Capture day 1\Session 1\Male1.ASF
:FULLY-SPECIFIED
:DEGREES
386
root 46.6522 16.3637 -2.96245 1133.71 85.3786 1134.59
lowerback -4.72387 -0.794922 -6.97393
upperback 0.730874 -0.522415 -2.22682
thorax 3.46025 -0.35323 1.56363
lowerneck -8.65897 1.69597 4.98186
upperneck 13.5837 1.87605 -1.36238
head 5.58592 1.11025 -1.10189
rclavicle 4.02539e-015 -9.54166e-015
rhumerus -29.6766 -33.782 -78.0502
rradius 7.87917
rwrist 36.1047
rhand -23.6766 37.6084
rfingers 7.12502
rthumb 2.78966 7.64686
lclavicle 4.02539e-015 -9.54166e-015
lhumerus -34.3628 45.4868 60.3602
lradius 12.1528
lwrist -30.4129
lhand -14.9453 45.1561
lfingers 7.12502
lthumb 11.2175 74.8362
rfemur -12.0751 -2.90426 14.4068
rtibia 64.5878
rfoot -5.44046 -4.8465
rtoes 19.2938
lfemur -14.0915 3.61657 -26.9853
ltibia 30.0201
lfoot -18.9256 -2.97169
ltoes 14.0932
387
root 46.7657 16.3262 -2.97108 1136.91 86.1012 1137.7
lowerback -4.4697 -1.00912 -6.72475
upperback 0.545418 -0.867955 -2.02723
thorax 3.14904 -0.512243 1.61057
lowerneck -8.58856 1.69045 4.98825
upperneck 13.7849 1.87745 -1.36265
head 5.63695 1.11608 -1.10309
rclavicle -3.24267e-015 2.54444e-014
rhumerus -30.4786 -33.4836 -77.5774
rradius 6.94989
rwrist 35.3188
rhand -24.4104 37.4932
rfingers 7.12502
rthumb 2.08104 7.52365
lclavicle -3.24267e-015 2.54444e-014
lhumerus -30.2261 39.7307 66.0559
lradius 13.7084
lwrist -23.385
lhand -14.9071 44.9905
lfingers 7.12502
lthumb 11.2543 74.6686
rfemur -13.3278 -3.20076 15.3001
rtibia 64.2879
rfoot -6.64578 -5.22546
rtoes 19.0305
lfemur -13.608 3.97982 -26.617
ltibia 30.6866
lfoot -20.4008 -2.83773
ltoes 16.6225
388
root 46.8809 16.3395 -3.00432 1133.31 86.8682 1133.99
lowerback -4.5186 -1.06166 -5.87021
upperback 0.646419 -0.994139 -1.78168
thorax 3.27787 -0.571491 1.37709
lowerneck -8.68382 1.84815 5.42105
upperneck 13.6065 2.07844 -1.78013
head 5.61298 1.2014 -1.28953
rclavicle -1.0051e-014 -6.36111e-015
rhumerus -30.0763 -33.4297 -77.4802
rradius 4.93468
rwrist 34.0153
rhand -25.5367 37.8032
rfingers 7.12502
rthumb 0.993222 7.82581
lclavicle -1.0051e-014 -6.36111e-015
lhumerus -26.7756 35.0561 70.4568
lradius 15.1849
lwrist -17.6038
lhand -15.0728 44.784
lfingers 7.12502
lthumb 11.0946 74.4707
rfemur -14.4874 -3.18532 16.4217
rtibia 63.589
rfoot -7.93835 -5.58033
rtoes 17.6269
lfemur -14.0087 3.1383 -25.7983
ltibia 31.2366
lfoot -20.0137 -3.12658
ltoes 17.3705
389
root 46.9932 16.2924 -3.02077 1137.04 87.3791 1137.53
lowerback -4.51686 -1.13876 -5.60523
upperback 0.509484 -1.12672 -1.62994
thorax 3.14066 -0.630199 1.37802
lowerneck -8.62233 1.73405 5.29937
upperneck 13.7409 1.93934 -1.7124
head 5.63728 1.1358 -1.25917
rclavicle -1.46604e-015 -2.34566e-014
rhumerus -31.432 -33.2422 -76.6675
rradius 5.13775
rwrist 32.5493
rhand -25.8537 37.1605
rfingers 7.12502
rthumb 0.687004 7.18185
lclavicle -1.46604e-015 -2.34566e-014
lhumerus -24.5083 30.4086 73.7433
lradius 16.7609
lwrist -12.3827
lhand -15.1506 44.6927
lfingers 7.12502
lthumb 11.0195 74.3835
rfemur -15.8719 -3.41538 17.0521
rtibia 62.9544
rfoot -9.63141 -5.92127
rtoes 15.3674
lfemur -13.6028 3.4366 -25.6485
ltibia 31.8591
lfoot -21.5704 -2.76874
ltoes 19.0654
390
root 47.1363 16.2799 -3.03926 1155.34 86.7707 1156.12
lowerback -4.45457 -1.31979 -6.61439
upperback 0.733138 -1.29005 -1.83107
thorax 3.37035 -0.733553 1.71727
lowerneck -8.8882 1.66308 5.22723
upperneck 13.903 1.85119 -1.79881
head 5.73003 1.08328 -1.27958
rclavicle -5.34234e-016 5.1684e-015
rhumerus -32.1775 -33.0965 -76.1105
rradius 4.96801
rwrist 31.1914
rhand -26.1609 36.3554
rfingers 7.12502
rthumb 0.390295 6.37601
lclavicle -5.34234e-016 5.1684e-015
lhumerus -22.5337 26.4691 76.3963
lradius 18.5182
lwrist -8.00047
lhand -15.1196 44.9339
lfingers 7.12502
lthumb 11.0494 74.6231
rfemur -16.3701 -3.97285 16.1592
rtibia 61.9874
rfoot -11.442 -6.07827
rtoes 13.4547
lfemur -13.2014 2.95302 -26.7056
ltibia 32.5208
lfoot -22.0818 -3.1579
ltoes 19.8736
391
root 47.254 16.2718 -3.05576 1165.65 87.0515 1166.21
lowerback -4.50704 -1.50308 -6.51368
upperback 0.730033 -1.5423 -1.70874
thorax 3.41703 -0.860512 1.76668
lowerneck -9.16041 1.62373 5.08325
upperneck 13.9222 1.79153 -1.73941
head 5.7785 1.04853 -1.2403
rclavicle -1.79155e-014 3.57812e-015
rhumerus -32.9861 -32.8368 -75.5425
rradius 4.88975
rwrist 29.9413
rhand -26.319 35.8489
rfingers 7.12502
rthumb 0.237618 5.86928
lclavicle -1.79155e-014 3.57812e-015
lhumerus -20.8147 23.4633 78.3618
lradius 20.1603
lwrist -4.70173
lhand -14.9968 45.165
lfingers 7.12502
lthumb 11.1678 74.8478
rfemur -17.4901 -4.21569 16.6652
rtibia 60.9775
rfoot -12.9692 -6.60881
rtoes 12.2237
lfemur -13.4239 2.38231 -26.5526
ltibia 32.996
lfoot -22.5038 -3.41871
ltoes 20.6335
392
root 47.3756 16.248 -3.06456 1177 87.7513 1177.34
lowerback -4.70325 -1.64615 -6.00483
upperback 0.7411 -1.76479 -1.39717
thorax 3.54926 -0.971416 1.78221
lowerneck -8.98391 1.78314 4.99337
upperneck 13.6429 2.00519 -1.59353
head 5.66612 1.15492 -1.1644
rclavicle -3.15571e-015 -1.59028e-015
rhumerus -33.9103 -32.533 -74.9026
rradius 5.04691
rwrist 28.782
rhand -26.2878 35.3298
rfingers 7.12502
rthumb 0.267773 5.35018
lclavicle -3.15571e-015 -1.59028e-015
lhumerus -19.1997 21.1692 79.9278
lradius 21.5408
lwrist -2.27212
lhand -15.031 44.7311
lfingers 7.12502
lthumb 11.1349 74.4157
rfemur -18.5149 -4.13846 17.8082
rtibia 59.7183
rfoot -14.5025 -7.24375
rtoes 10.128
lfemur -13.4961 2.22789 -25.8037
ltibia 33.5747
lfoot -23.6078 -3.48922
ltoes 20.5015
